<svg width="220" height="221" viewBox="0 0 220 221" fill="none" xmlns="http://www.w3.org/2000/svg">
<g opacity="0.5" filter="url(#filter0_f_6403_233)">
<path d="M114.916 30.3709C70.8526 27.6558 32.9312 61.1752 30.2161 105.239C27.501 149.302 61.0204 187.224 105.084 189.939C149.147 192.654 187.069 159.134 189.784 115.071C192.499 71.0075 158.979 33.086 114.916 30.3709Z" fill="url(#paint0_linear_6403_233)"/>
</g>
<path opacity="0.15" d="M49.285 33.469L64.2541 125.45L80.2641 128.868C82.0087 128.847 82.3392 131.239 83.8938 132.041L106.608 140.376L116.47 149.711H165.667C165.667 149.711 171.014 28.6787 49.285 33.469Z" fill="url(#paint1_linear_6403_233)"/>
<path d="M109.225 139.673L108.915 141.931L89.9298 140.504L63.8749 127.687L64.1842 125.443L82.4734 125.457C83.0433 125.457 83.6061 125.605 84.1055 125.879L109.225 139.68V139.673Z" fill="#684FDF"/>
<path d="M108.915 141.924L90.7881 141.91C90.1056 141.91 89.4374 141.735 88.8466 141.411L63.8749 127.687L82.164 127.701C82.7338 127.701 83.2965 127.849 83.7959 128.123L108.915 141.924Z" fill="#4E35C5"/>
<path d="M97.1397 139.75C90.1547 139.94 87.4465 139.434 81.0172 137.112C81.0453 137.176 81.3125 138.147 81.3407 138.217C82.5999 140.911 84.7523 143.127 87.144 144.752C90.0492 146.735 93.3342 147.959 96.5841 149.162C97.3155 149.437 105.426 151.681 106.165 151.955C110.779 153.664 113.438 153.39 117.982 155.999C118.32 155.184 119.621 150.4 120.557 145.047C116.758 143.774 111.933 141.544 110.223 140.791C110.223 140.784 107.572 138.407 107.572 138.407C106.777 137.267 105.933 136.156 105.004 135.122C103.654 133.616 101.895 131.999 100.08 131.161C98.7506 130.549 96.5699 131.492 95.1349 131.935L98.3989 133.729C99.5525 134.383 100.087 134.629 100.383 134.967C100.741 135.382 101.023 135.853 101.248 136.353C101.825 137.647 101.009 139.138 99.6089 139.363C98.8351 139.483 98.0683 139.617 97.1257 139.743L97.1397 139.75Z" fill="#F3D4BD"/>
<path d="M159.555 162.626C159.555 162.626 142.468 161.683 136.285 161.282C136.285 161.282 119.959 159.066 114.205 158.265L118.791 140.904C118.791 140.904 136.771 140.841 143.334 140.7C153.927 140.475 166.673 137.985 176.015 134.763C174.918 154.726 159.562 162.626 159.562 162.626H159.555Z" fill="#FFD371"/>
<mask id="mask0_6403_233" style="mask-type:luminance" maskUnits="userSpaceOnUse" x="74" y="66" width="49" height="48">
<path d="M98.4901 113.864C111.59 113.864 122.21 103.245 122.21 90.1449C122.21 77.0449 111.59 66.4251 98.4901 66.4251C85.3901 66.4251 74.7703 77.0449 74.7703 90.1449C74.7703 103.245 85.3901 113.864 98.4901 113.864Z" fill="white"/>
</mask>
<g mask="url(#mask0_6403_233)">
<path d="M98.4901 113.865C111.59 113.865 122.21 103.246 122.21 90.1457C122.21 77.0458 111.59 66.426 98.4901 66.426C85.3901 66.426 74.7703 77.0458 74.7703 90.1457C74.7703 103.246 85.3901 113.865 98.4901 113.865Z" fill="white"/>
</g>
<g style="mix-blend-mode:multiply">
<path d="M98.4901 113.864C111.59 113.864 122.21 103.245 122.21 90.1449C122.21 77.0449 111.59 66.4251 98.4901 66.4251C85.3901 66.4251 74.7703 77.0449 74.7703 90.1449C74.7703 103.245 85.3901 113.864 98.4901 113.864Z" fill="url(#paint2_linear_6403_233)"/>
</g>
<path d="M106.556 94.52L90.5173 101.101L90.4233 85.7681L106.496 79.1894L106.556 94.52Z" fill="#F7F8F8"/>
<g style="mix-blend-mode:multiply">
<path d="M98.4901 113.864C111.59 113.864 122.21 103.245 122.21 90.1449C122.21 77.0449 111.59 66.4251 98.4901 66.4251C85.3901 66.4251 74.7703 77.0449 74.7703 90.1449C74.7703 103.245 85.3901 113.864 98.4901 113.864Z" stroke="url(#paint3_linear_6403_233)" stroke-width="0.586409" stroke-miterlimit="10"/>
</g>
<path d="M52.9219 130.486L54.582 136.296L60.3923 137.949L54.582 139.61L52.9219 145.42L51.2689 139.61L45.4516 137.949L51.2689 136.296L52.9219 130.486Z" fill="#F0E8FF"/>
<path d="M76.6346 45.4552L78.2877 51.2655L84.105 52.9258L78.2877 54.5788L76.6346 60.3961L74.9746 54.5788L69.1641 52.9258L74.9746 51.2655L76.6346 45.4552Z" fill="#F0E8FF"/>
<path d="M135.807 107.239L138.157 115.469L146.38 117.811L138.157 120.154L135.807 128.384L133.465 120.154L125.235 117.811L133.465 115.469L135.807 107.239Z" fill="#F0E8FF"/>
<defs>
<filter id="filter0_f_6403_233" x="10.251" y="10.4058" width="199.498" height="199.498" filterUnits="userSpaceOnUse" color-interpolation-filters="sRGB">
<feFlood flood-opacity="0" result="BackgroundImageFix"/>
<feBlend mode="normal" in="SourceGraphic" in2="BackgroundImageFix" result="shape"/>
<feGaussianBlur stdDeviation="9.90556" result="effect1_foregroundBlur_6403_233"/>
</filter>
<linearGradient id="paint0_linear_6403_233" x1="194.7" y1="35.287" x2="35.1324" y2="25.4548" gradientUnits="userSpaceOnUse">
<stop stop-color="white" stop-opacity="0.82"/>
<stop offset="1" stop-color="#A973FF"/>
</linearGradient>
<linearGradient id="paint1_linear_6403_233" x1="68.9249" y1="130.291" x2="135.566" y2="63.6575" gradientUnits="userSpaceOnUse">
<stop stop-color="#7908FF"/>
<stop offset="0.03" stop-color="#7908FF" stop-opacity="0.94"/>
<stop offset="0.14" stop-color="#7908FF" stop-opacity="0.72"/>
<stop offset="0.26" stop-color="#7908FF" stop-opacity="0.53"/>
<stop offset="0.37" stop-color="#7908FF" stop-opacity="0.37"/>
<stop offset="0.49" stop-color="#7908FF" stop-opacity="0.23"/>
<stop offset="0.61" stop-color="#7908FF" stop-opacity="0.13"/>
<stop offset="0.73" stop-color="#7908FF" stop-opacity="0.06"/>
<stop offset="0.86" stop-color="#7908FF" stop-opacity="0.01"/>
<stop offset="1" stop-color="#7908FF" stop-opacity="0"/>
</linearGradient>
<linearGradient id="paint2_linear_6403_233" x1="98.49" y1="66.4251" x2="98.49" y2="113.864" gradientUnits="userSpaceOnUse">
<stop stop-color="#843AF9"/>
<stop offset="1" stop-color="#A973FF"/>
</linearGradient>
<linearGradient id="paint3_linear_6403_233" x1="98.49" y1="66.4251" x2="98.49" y2="113.864" gradientUnits="userSpaceOnUse">
<stop stop-color="#843AF9"/>
<stop offset="1" stop-color="#A973FF"/>
</linearGradient>
</defs>
</svg>
