<svg width="50" height="50" viewBox="0 0 50 50" fill="none" xmlns="http://www.w3.org/2000/svg">
<g clip-path="url(#clip0_1525_730)">
<path d="M29.3533 34.1226L8.39075 42.506L8.39075 22.5286L29.3533 13.9668L29.3533 34.1226Z" fill="#979797"/>
<path d="M27.4274 33.0692L8.39075 40.6824L8.39075 22.5403L27.4274 14.7651L27.4274 33.0692Z" fill="white"/>
<path d="M48.7537 14.1817L44.8537 12.4801C43.9105 12.0697 43.1593 11.3161 42.7489 10.3753L41.0473 6.47534C40.9153 6.17294 40.4857 6.17294 40.3537 6.47534L38.6521 10.3753C38.2417 11.3185 37.4881 12.0697 36.5473 12.4801L32.6425 14.1841C32.3401 14.3161 32.3401 14.7433 32.6425 14.8753L36.6145 16.6321C37.5553 17.0473 38.3041 17.8033 38.7097 18.7489L40.3561 22.5745C40.4857 22.8793 40.9177 22.8793 41.0497 22.5745L42.7489 18.6817C43.1593 17.7385 43.9129 16.9873 44.8537 16.5769L48.7537 14.8753C49.0561 14.7433 49.0561 14.3137 48.7537 14.1817Z" fill="#FFE134"/>
<path d="M33.0673 11.6425L33.8641 9.81612C34.0561 9.37452 34.4089 9.02172 34.8505 8.82972L36.6793 8.03292C36.8209 7.97052 36.8209 7.76892 36.6793 7.70892L34.8505 6.91212C34.4089 6.72012 34.0561 6.36732 33.8641 5.92572L33.0673 4.09692C33.0049 3.95532 32.8033 3.95532 32.7433 4.09692L31.9465 5.92572C31.7545 6.36732 31.4017 6.72012 30.9601 6.91212L29.1289 7.71132C28.9873 7.77372 28.9873 7.97292 29.1289 8.03532L30.9913 8.85852C31.4329 9.05292 31.7833 9.40812 31.9729 9.84972L32.7457 11.6425C32.8081 11.7841 33.0097 11.7865 33.0697 11.6425H33.0673Z" fill="#FFE134"/>
<path d="M36.5735 3.3479L37.5623 3.7847C37.7975 3.8879 37.9823 4.0775 38.0831 4.3103L38.4935 5.2631C38.5271 5.3399 38.6327 5.3399 38.6663 5.2631L39.0887 4.2935C39.1919 4.0583 39.3791 3.8711 39.6119 3.7703L40.5815 3.3479C40.6559 3.3143 40.6559 3.2087 40.5815 3.1751L39.6119 2.7527C39.3767 2.6495 39.1895 2.4623 39.0887 2.2295L38.6663 1.2599C38.6327 1.1855 38.5271 1.1855 38.4935 1.2599L38.0711 2.2295C37.9679 2.4647 37.7807 2.6519 37.5479 2.7527L36.5759 3.1775C36.5015 3.2111 36.5015 3.3167 36.5759 3.3503L36.5735 3.3479Z" fill="#FFE134"/>
</g>
<defs>
<clipPath id="clip0_1525_730">
<rect width="50" height="50" fill="white"/>
</clipPath>
</defs>
</svg>
